<svg id="Layer_1" data-name="Layer 1" xmlns="http://www.w3.org/2000/svg" viewBox="0 0 153.19 89.02"><defs><style>.cls-1{fill:#231f20;}.cls-2{fill:#808285;}.cls-3{fill:#fff;}</style></defs><path class="cls-1" d="M268.74,329" transform="translate(-262.11 -321.85)"/><path class="cls-2" d="M272.66,323l60.25,44.77a9.3,9.3,0,0,0,10.73,0l63.32-46Z" transform="translate(-262.11 -321.85)"/><path class="cls-2" d="M262.11,326.79v71.83a18.07,18.07,0,0,0,4.58,7.33,18.44,18.44,0,0,0,10.11,4.92l124.54-.68a20.28,20.28,0,0,0,14-10.19l-.51-71.68q-4.46,3.33-9,6.66Q377,356.16,348.4,374.62a18.26,18.26,0,0,1-11.06,2.72,17.9,17.9,0,0,1-7.49-2.38Z" transform="translate(-262.11 -321.85)"/><path class="cls-1" d="M330,322.53" transform="translate(-262.11 -321.85)"/><path class="cls-3" d="M272.66,323l-10.55,3.75,69.34,49a22.6,22.6,0,0,0,13.86.38q17.94-11.22,36.8-24.21,17.17-11.88,32.68-23.63L407,321.85l-65.2,47a9.27,9.27,0,0,1-3.74.68,9.4,9.4,0,0,1-3.23-.68Z" transform="translate(-262.11 -321.85)"/></svg>