<svg width="30" height="30" viewBox="0 0 24 24" fill="#1DA1F2" xmlns="http://www.w3.org/2000/svg">
  <path d="M23.4 4.8c-.8.4-1.6.6-2.5.8
  .9-.5 1.6-1.4 1.9-2.4
  -.8.5-1.8.9-2.8 1.1
  -1.5-1.6-4.2-1.2-5.2.9
  -.6 1-.7 2.3-.3 3.4
  -3.3-.2-6.3-1.7-8.3-4.2
  -1.1 1.9-.5 4.3 1.4 5.4
  -.7 0-1.4-.2-2-.5
  0 2.1 1.5 4 3.6 4.4
  -.5.1-1 .2-1.5.1
  .4 1.8 2.1 3.1 4 3.1
  -1.5 1.2-3.5 1.9-5.6 1.6
  2 1.3 4.4 2.1 6.9 2.1
  8.3 0 12.9-7 12.9-13
  0-.2 0-.4 0-.6
  .9-.6 1.6-1.4 2.2-2.3z"/>
</svg>